# xmcd
#
# Track frame offsets: 
#        150
#        20055
#        33635
#
# Disc length: 715 seconds
#
# Revision: 1
# Processed by: cddbd v1.5.2PL0 Copyright (c) Steve Scherf et al.
# Submitted via: ExactAudioCopy v0.95b4
#
DISCID=2102c903
DTITLE=Sorhin - Döden MCMXCVIII
DYEAR=1998
DGENRE=Black Metal
TTITLE0=Ett Sista Monument Statligt
TTITLE1=När Döden Sträcker Ut Sina Vingar
TTITLE2=Blott En Människa Svag
EXTD=YEAR: 2001
EXTT0=
EXTT1=
EXTT2=
PLAYORDER=
